<svg width="28" height="28" viewBox="0 0 28 28" fill="none" xmlns="http://www.w3.org/2000/svg">
<g clip-path="url(#clip0_85_83)">
<path d="M25.8457 0C27.0352 0 28 0.96476 28 2.1543V25.8457C28 27.0352 27.0352 28 25.8457 28H2.1543C0.96476 28 0 27.0352 0 25.8457V2.1543C0 0.96476 0.96476 0 2.1543 0H25.8457ZM4.34961 6.86523C4.0529 6.86527 3.7684 6.98314 3.55859 7.19238C3.34882 7.40164 3.23047 7.68554 3.23047 7.98145V19.8838C3.23047 20.1797 3.34882 20.4636 3.55859 20.6729C3.7684 20.8821 4.0529 21 4.34961 21H9.75781C10.6552 20.9994 11.5301 20.7178 12.2588 20.1953C12.9872 19.6729 13.5329 18.9359 13.8193 18.0879C14.1058 17.2397 14.1188 16.3224 13.8555 15.4668C13.5921 14.6113 13.0657 13.8602 12.3516 13.3184C12.8403 12.7518 13.156 12.0564 13.2607 11.3164C13.3654 10.5765 13.2547 9.82181 12.9424 9.14258C12.63 8.4634 12.1286 7.88802 11.498 7.48438C10.8674 7.08072 10.1341 6.86559 9.38477 6.86523H4.34961ZM20.0146 11.3291C18.7287 11.3291 17.4952 11.8383 16.5859 12.7451C15.6767 13.6519 15.1661 14.8817 15.166 16.1641C15.166 17.4465 15.6767 18.6771 16.5859 19.584C17.4952 20.4907 18.7288 21 20.0146 21C20.7479 21.0019 21.4719 20.8363 22.1309 20.5156C22.2661 20.4536 22.3877 20.3652 22.4883 20.2559C22.5888 20.1464 22.6666 20.0177 22.7168 19.8779C22.7669 19.7382 22.7883 19.5896 22.7803 19.4414C22.7722 19.2931 22.735 19.1473 22.6699 19.0137C22.6048 18.8801 22.5133 18.7611 22.4014 18.6631C22.2894 18.5651 22.1589 18.4904 22.0176 18.4434C21.8765 18.3964 21.7274 18.3775 21.5791 18.3887C21.4307 18.3999 21.2858 18.4411 21.1533 18.5088C20.7987 18.6808 20.4089 18.7698 20.0146 18.7686C19.5207 18.768 19.0366 18.6276 18.6191 18.3643C18.2017 18.101 17.8675 17.7251 17.6553 17.2803H23.7441C24.0409 17.2802 24.3253 17.1624 24.5352 16.9531C24.7449 16.7439 24.8633 16.46 24.8633 16.1641C24.8617 14.8823 24.3501 13.6535 23.4414 12.7471C22.5325 11.8406 21.3 11.3307 20.0146 11.3291ZM9.75781 14.6768C10.3017 14.6768 10.8234 14.8919 11.208 15.2754C11.5927 15.6591 11.8096 16.1801 11.8096 16.7227C11.8095 17.2651 11.5926 17.7854 11.208 18.1689C10.8233 18.5525 10.3018 18.7685 9.75781 18.7686H5.46875V14.6768H9.75781ZM20.0146 13.5605C20.5087 13.5606 20.9926 13.7005 21.4102 13.9639C21.8276 14.2273 22.1614 14.6036 22.373 15.0488H17.6553C17.867 14.6036 18.2016 14.2273 18.6191 13.9639C19.0367 13.7005 19.5206 13.5605 20.0146 13.5605ZM9.38477 9.09668C9.82972 9.09668 10.2566 9.27323 10.5713 9.58691C10.8859 9.90072 11.0634 10.3267 11.0635 10.7705C11.0635 11.2144 10.886 11.6402 10.5713 11.9541C10.2565 12.268 9.82989 12.4443 9.38477 12.4443H5.46875V9.09668H9.38477ZM17.0303 7.98145C16.7337 7.98154 16.449 8.0985 16.2393 8.30762C16.0295 8.51679 15.9122 8.80088 15.9121 9.09668C15.9121 9.39249 16.0296 9.6765 16.2393 9.88574C16.449 10.0949 16.7337 10.2128 17.0303 10.2129H22.998C23.2948 10.2129 23.5792 10.095 23.7891 9.88574C23.9988 9.67648 24.1172 9.39259 24.1172 9.09668C24.1171 8.80087 23.9988 8.51679 23.7891 8.30762C23.5793 8.09855 23.2946 7.98145 22.998 7.98145H17.0303Z" fill="#F2EBE5"/>
</g>
<defs>
<clipPath id="clip0_85_83">
<rect width="28" height="28" fill="white"/>
</clipPath>
</defs>
</svg>
