<svg width="28" height="28" viewBox="0 0 28 28" fill="none" xmlns="http://www.w3.org/2000/svg">
<g clip-path="url(#clip0_85_88)">
<path d="M20.4615 0H7.53846C5.53979 0.002138 3.6236 0.797053 2.21033 2.21033C0.797053 3.6236 0.002138 5.53979 0 7.53846V20.4615C0.002138 22.4602 0.797053 24.3764 2.21033 25.7897C3.6236 27.2029 5.53979 27.9979 7.53846 28H20.4615C22.4602 27.9979 24.3764 27.2029 25.7897 25.7897C27.2029 24.3764 27.9979 22.4602 28 20.4615V7.53846C27.9979 5.53979 27.2029 3.6236 25.7897 2.21033C24.3764 0.797053 22.4602 0.002138 20.4615 0ZM14 20.4615C12.722 20.4615 11.4728 20.0826 10.4102 19.3726C9.34757 18.6626 8.51938 17.6534 8.03032 16.4727C7.54126 15.292 7.4133 13.9928 7.66262 12.7394C7.91194 11.486 8.52734 10.3347 9.431 9.431C10.3347 8.52734 11.486 7.91194 12.7394 7.66262C13.9928 7.4133 15.292 7.54126 16.4727 8.03032C17.6534 8.51938 18.6626 9.34757 19.3726 10.4102C20.0826 11.4728 20.4615 12.722 20.4615 14C20.4598 15.7132 19.7784 17.3556 18.567 18.567C17.3556 19.7784 15.7132 20.4598 14 20.4615ZM22.0769 7.53846C21.7574 7.53846 21.4451 7.44372 21.1795 7.26622C20.9138 7.08872 20.7068 6.83643 20.5845 6.54126C20.4622 6.24609 20.4302 5.92128 20.4926 5.60793C20.5549 5.29458 20.7088 5.00674 20.9347 4.78083C21.1606 4.55491 21.4484 4.40106 21.7618 4.33873C22.0751 4.2764 22.3999 4.30839 22.6951 4.43066C22.9903 4.55292 23.2426 4.75997 23.4201 5.02562C23.5976 5.29127 23.6923 5.60358 23.6923 5.92308C23.6923 6.3515 23.5221 6.76238 23.2192 7.06533C22.9162 7.36827 22.5054 7.53846 22.0769 7.53846ZM18.3077 14C18.3077 14.852 18.0551 15.6848 17.5817 16.3932C17.1084 17.1016 16.4356 17.6538 15.6485 17.9798C14.8614 18.3058 13.9952 18.3911 13.1596 18.2249C12.324 18.0587 11.5564 17.6484 10.954 17.046C10.3516 16.4436 9.94129 15.676 9.77508 14.8404C9.60887 14.0048 9.69417 13.1386 10.0202 12.3515C10.3463 11.5644 10.8984 10.8916 11.6068 10.4183C12.3152 9.94495 13.148 9.69231 14 9.69231C15.1425 9.69231 16.2381 10.1462 17.046 10.954C17.8538 11.7619 18.3077 12.8575 18.3077 14Z" fill="#F2EBE5"/>
</g>
<defs>
<clipPath id="clip0_85_88">
<rect width="28" height="28" fill="white"/>
</clipPath>
</defs>
</svg>
