<svg width="40" height="32" viewBox="0 0 40 32" fill="none" xmlns="http://www.w3.org/2000/svg">
<path d="M40 30.453C38.7426 30.7477 37.2495 31.0129 35.5206 31.2486C33.7918 31.4843 32.0105 31.6611 30.1768 31.779C28.3432 31.9263 26.5881 32 24.9116 32C16.6339 32 10.3995 30.674 6.20825 28.0221C2.06942 25.3702 0 21.3628 0 16C0 10.6961 2.12181 6.7035 6.36542 4.0221C10.6614 1.3407 17.0792 0 25.6189 0C27.5049 0 29.3648 0.0736648 31.1984 0.220994C33.0845 0.368324 34.7872 0.545119 36.3065 0.751379C37.8782 0.957642 39.1094 1.1639 40 1.37016V9.37017C38.2711 9.04604 35.835 8.75138 32.6916 8.48619C29.5481 8.22099 26.0642 8.0884 22.2397 8.0884C18.8343 8.0884 15.9528 8.27993 13.5953 8.66298C11.2377 9.04604 9.32548 9.60589 7.85855 10.3425C6.65357 11.0203 5.73674 11.8453 5.10806 12.8177C4.53176 13.7606 4.24361 14.8214 4.24361 16C4.24361 17.267 4.61035 18.4309 5.34381 19.4917C6.07728 20.5525 7.17747 21.407 8.6444 22.0552C10.0589 22.674 11.8926 23.1455 14.1454 23.4696C16.3982 23.7643 19.0963 23.9116 22.2397 23.9116C26.0642 23.9116 29.5481 23.779 32.6916 23.5138C35.835 23.2192 38.2711 22.9245 40 22.6298V30.453Z" fill="#F2EBE5"/>
<path d="M28.1549 21.3333C23.2825 21.3333 19.2922 21.132 16.1839 20.7293C13.0756 20.3266 10.7864 19.7323 9.31628 18.9466C7.84615 18.151 7.11108 17.1688 7.11108 16C7.11108 14.8214 7.90915 13.8392 9.50529 13.0534C11.1014 12.2578 13.4746 11.6636 16.6249 11.2707C19.8172 10.868 23.7655 10.6667 28.47 10.6667C29.8561 10.6667 31.2632 10.6912 32.6913 10.7403C34.1615 10.7796 35.5266 10.8336 36.7867 10.9024C38.0888 10.9613 39.1599 11.0252 40 11.0939V13.8048C38.4038 13.6869 36.3667 13.5838 33.8884 13.4954C31.4102 13.407 28.659 13.3628 25.6347 13.3628C23.0305 13.3628 20.6783 13.4217 18.5781 13.5396C16.4779 13.6575 14.8398 13.8392 13.6637 14.0847C12.6556 14.291 11.8785 14.5562 11.3325 14.8803C10.7864 15.2044 10.5134 15.5777 10.5134 16C10.5134 16.4223 10.7864 16.8054 11.3325 17.1492C11.9205 17.4831 12.7816 17.7581 13.9157 17.9742C15.0498 18.2001 16.6459 18.3671 18.7041 18.4751C20.7623 18.5832 23.0725 18.6372 25.6347 18.6372C27.2309 18.6372 28.722 18.6225 30.1081 18.593C31.4942 18.5635 32.7543 18.5292 33.8884 18.4899C33.1324 18.5292 35.0645 18.4408 33.8884 18.4899C33.8884 18.3033 33.8884 18.1265 33.8884 17.9595C33.8884 17.7925 33.8674 17.6255 33.8254 17.4586C33.7834 17.2818 33.7414 17.1001 33.6994 16.9134C33.6574 16.7268 33.5944 16.5206 33.5104 16.2947L40 16.1481C39.963 16.5926 40 16.9134 40 17.4586C39.963 17.9259 40 18.0741 40 18.4899C40 18.9057 40 19.1417 40 19.5556C40 19.919 40 20.3217 40 20.7637C39.2019 20.8913 38.2358 21.0043 36.8497 21.0829C35.4636 21.1614 34.0144 21.2204 32.5023 21.2597C30.9902 21.3088 29.5411 21.3333 28.1549 21.3333Z" fill="#F2EBE5"/>
</svg>
