<svg width="36" height="36" viewBox="0 0 36 36" fill="none" xmlns="http://www.w3.org/2000/svg">
<g opacity="0.5">
<rect x="0.5" y="0.5" width="35" height="35" rx="17.5" stroke="#8F8680"/>
<path d="M16.6387 25.25C16.492 25.2525 16.3482 25.2133 16.2246 25.1377L16.1084 25.0498L16.1016 25.0439L16.1025 25.043L9.97461 19.0322C9.83165 18.8918 9.75 18.7006 9.75 18.5C9.75 18.2994 9.83165 18.1082 9.97461 17.9678L16.1025 11.9561L16.1084 11.9502C16.2528 11.8182 16.4431 11.7466 16.6387 11.75C16.8342 11.7534 17.0214 11.8317 17.1611 11.9687C17.3009 12.1059 17.3821 12.2914 17.3857 12.4873C17.3893 12.6834 17.3146 12.8726 17.1797 13.0146L17.1738 13.0215L12.3555 17.749L25.4893 17.749C25.6895 17.749 25.8824 17.8275 26.0254 17.9678C26.1684 18.1082 26.25 18.2994 26.25 18.5C26.25 18.7006 26.1684 18.8918 26.0254 19.0322C25.8824 19.1725 25.6895 19.251 25.4893 19.251L12.3555 19.251L17.1738 23.9795L17.1807 23.9854L17.1807 23.9863C17.3151 24.1283 17.3893 24.317 17.3857 24.5127C17.3821 24.7086 17.3009 24.8941 17.1611 25.0312C17.0214 25.1683 16.8342 25.2466 16.6387 25.25Z" fill="#F2EBE5" stroke="#F2EBE5" stroke-width="0.5"/>
</g>
</svg>
