<svg width="36" height="36" viewBox="0 0 36 36" fill="none" xmlns="http://www.w3.org/2000/svg">
<rect x="0.5" y="0.5" width="35" height="35" rx="17.5" stroke="#8F8680"/>
<path d="M19.3613 11.75C19.508 11.7475 19.6518 11.7867 19.7754 11.8623L19.8916 11.9502L19.8984 11.9561L19.8975 11.957L26.0254 17.9678C26.1684 18.1082 26.25 18.2994 26.25 18.5C26.25 18.7006 26.1684 18.8918 26.0254 19.0322L19.8975 25.0439L19.8916 25.0498C19.7472 25.1818 19.5569 25.2534 19.3613 25.25C19.1658 25.2466 18.9786 25.1683 18.8389 25.0312C18.6991 24.8941 18.6179 24.7086 18.6143 24.5127C18.6107 24.3166 18.6854 24.1274 18.8203 23.9854L18.8262 23.9785L23.6445 19.251H10.5107C10.3105 19.251 10.1176 19.1725 9.97461 19.0322C9.83155 18.8918 9.75 18.7006 9.75 18.5C9.75 18.2994 9.83155 18.1082 9.97461 17.9678C10.1176 17.8275 10.3105 17.749 10.5107 17.749H23.6445L18.8262 13.0205L18.8193 13.0146V13.0137C18.6849 12.8717 18.6107 12.683 18.6143 12.4873C18.6179 12.2914 18.6991 12.1059 18.8389 11.9688C18.9786 11.8317 19.1658 11.7534 19.3613 11.75Z" fill="#F2EBE5" stroke="#F2EBE5" stroke-width="0.5"/>
</svg>
