<svg width="24" height="24" viewBox="0 0 24 24" fill="none" xmlns="http://www.w3.org/2000/svg">
<path d="M18.5766 9C19.177 8.43333 19.5936 7.69952 19.7725 6.8935C19.9513 6.08747 19.8841 5.24633 19.5797 4.47889C19.2752 3.71145 18.7475 3.05303 18.0647 2.58881C17.382 2.12458 16.5756 1.87593 15.75 1.875H9.00002C8.17439 1.87593 7.36804 2.12458 6.68529 2.58881C6.00253 3.05303 5.47479 3.71145 5.17034 4.47889C4.86589 5.24633 4.79874 6.08747 4.97757 6.8935C5.15641 7.69952 5.573 8.43333 6.17346 9C5.75399 9.39385 5.42176 9.87127 5.19823 10.4015C4.97469 10.9317 4.86481 11.5028 4.87567 12.0781C4.88654 12.6534 5.01791 13.22 5.26131 13.7414C5.50471 14.2627 5.85473 14.7273 6.28877 15.105C5.74595 15.6166 5.33879 16.255 5.10393 16.9629C4.86907 17.6709 4.81386 18.4261 4.94327 19.1607C5.07268 19.8952 5.38266 20.5861 5.84532 21.1712C6.30797 21.7562 6.9088 22.2171 7.59376 22.5124C8.27872 22.8076 9.02633 22.928 9.76934 22.8626C10.5124 22.7972 11.2275 22.5482 11.8504 22.1379C12.4733 21.7276 12.9844 21.1689 13.3378 20.5121C13.6912 19.8553 13.8758 19.1209 13.875 18.375V15.6722C14.7587 16.1187 15.7735 16.2325 16.7341 15.9928C17.6947 15.7531 18.537 15.1759 19.1073 14.3666C19.6776 13.5572 19.9378 12.5698 19.8404 11.5845C19.7429 10.5993 19.2944 9.68193 18.5766 9ZM17.625 6C17.625 6.49728 17.4275 6.9742 17.0758 7.32583C16.7242 7.67746 16.2473 7.875 15.75 7.875H13.875V4.125H15.75C16.2473 4.125 16.7242 4.32254 17.0758 4.67418C17.4275 5.02581 17.625 5.50272 17.625 6ZM7.12502 6C7.12502 5.50272 7.32256 5.02581 7.67419 4.67418C8.02582 4.32254 8.50274 4.125 9.00002 4.125H11.625V7.875H9.00002C8.50274 7.875 8.02582 7.67746 7.67419 7.32583C7.32256 6.9742 7.12502 6.49728 7.12502 6ZM9.00002 13.875C8.50274 13.875 8.02582 13.6775 7.67419 13.3258C7.32256 12.9742 7.12502 12.4973 7.12502 12C7.12502 11.5027 7.32256 11.0258 7.67419 10.6742C8.02582 10.3225 8.50274 10.125 9.00002 10.125H11.625V13.875H9.00002ZM11.625 18.375C11.625 18.82 11.4931 19.255 11.2458 19.625C10.9986 19.995 10.6472 20.2834 10.2361 20.4537C9.82492 20.624 9.37252 20.6686 8.93607 20.5818C8.49961 20.495 8.0987 20.2807 7.78403 19.966C7.46936 19.6513 7.25507 19.2504 7.16825 18.814C7.08143 18.3775 7.12599 17.9251 7.29629 17.514C7.46659 17.1028 7.75498 16.7514 8.12499 16.5042C8.495 16.257 8.93001 16.125 9.37502 16.125H11.625V18.375ZM15.75 13.875C15.3792 13.875 15.0167 13.765 14.7083 13.559C14.4 13.353 14.1597 13.0601 14.0177 12.7175C13.8758 12.3749 13.8387 11.9979 13.911 11.6342C13.9834 11.2705 14.162 10.9364 14.4242 10.6742C14.6864 10.412 15.0205 10.2334 15.3842 10.161C15.7479 10.0887 16.1249 10.1258 16.4676 10.2677C16.8102 10.4096 17.103 10.65 17.309 10.9583C17.5151 11.2666 17.625 11.6292 17.625 12C17.625 12.4973 17.4275 12.9742 17.0758 13.3258C16.7242 13.6775 16.2473 13.875 15.75 13.875Z" fill="#8F8680"/>
</svg>
