<svg width="24" height="24" viewBox="0 0 24 24" fill="none" xmlns="http://www.w3.org/2000/svg">
<path d="M9 12C9 11.2044 9.31607 10.4413 9.87868 9.87868C10.4413 9.31607 11.2044 9 12 9C12.7956 9 13.5587 9.31607 14.1213 9.87868C14.6839 10.4413 15 11.2044 15 12C15 12.7956 14.6839 13.5587 14.1213 14.1213C13.5587 14.6839 12.7956 15 12 15C11.2044 15 10.4413 14.6839 9.87868 14.1213C9.31607 13.5587 9 12.7956 9 12Z" stroke="#8F8680" stroke-width="1.5"/>
<path d="M12 9V4M12 15V20M15 12H20M9 12H4M14.598 10.5L18.928 8M9.4 13.5L5.071 16M13.5 14.598L16 18.928M10.5 9.4L8 5.071M13.5 9.402L16 5.072M10.5 14.598L8 18.929M14.598 13.5L18.928 16M9.4 10.5L5.071 8" stroke="#8F8680" stroke-width="1.5" stroke-linecap="round" stroke-linejoin="round"/>
</svg>
