<svg width="24" height="24" viewBox="0 0 24 24" fill="none" xmlns="http://www.w3.org/2000/svg">
<path d="M2 15.5V16C2 16.943 2 17.415 2.403 17.714C2.806 18.014 3.192 17.899 3.964 17.667C8.5 16.31 13.5 12.5 13.5 12.5L12.123 15.042C11.408 16.362 11.051 17.021 11.339 17.511C11.629 18.001 12.374 18.001 13.867 18.001H15.167C15.749 18.001 16.04 18.001 16.276 17.857C16.512 17.715 16.648 17.456 16.922 16.939L21.147 8.939C21.84 7.626 22.187 6.97 21.897 6.485C21.609 6 20.87 6 19.394 6H17.715C17.118 6 16.819 6 16.579 6.15C16.339 6.299 16.206 6.568 15.939 7.106L14.5 10L14.219 7.752C14.115 6.918 14.063 6.5 13.779 6.25C13.495 6 13.075 6 12.234 6H11.066C10.385 6 10.044 6 9.791 6.17C9.538 6.34 9.401 6.678 9.126 7.352C8.186 9.663 6.609 12.292 3.966 13.185C2.906 13.543 2.376 13.722 2.188 13.983C2 14.246 2 14.664 2 15.5Z" stroke="#8F8680" stroke-width="1.7" stroke-linejoin="round"/>
<path d="M2 8V8.5C2 9.443 2 9.914 2.293 10.207C2.586 10.5 3.057 10.5 4 10.5H4.5C5.443 10.5 5.914 10.5 6.207 10.207C6.5 9.914 6.5 9.443 6.5 8.5V8C6.5 7.057 6.5 6.586 6.207 6.293C5.914 6 5.443 6 4.5 6H4C3.057 6 2.586 6 2.293 6.293C2 6.586 2 7.057 2 8Z" stroke="#8F8680" stroke-width="1.7" stroke-linejoin="round"/>
</svg>
